<?xml version="1.0" encoding="UTF-8"?>
<!DOCTYPE svg PUBLIC "-//W3C//DTD SVG 1.1//EN" "http://www.w3.org/Graphics/SVG/1.1/DTD/svg11.dtd">
<svg xmlns="http://www.w3.org/2000/svg" version="1.1" width="64px" height="64px" style="shape-rendering:geometricPrecision; text-rendering:geometricPrecision; image-rendering:optimizeQuality; fill-rule:evenodd; clip-rule:evenodd" xmlns:xlink="http://www.w3.org/1999/xlink">
<g><path style="opacity:0.889" fill="#fefffe" d="M 12.5,13.5 C 25.6592,13.0202 38.6592,13.5202 51.5,15C 45.8333,20.6667 40.1667,26.3333 34.5,32C 32.5,32.6667 30.5,32.6667 28.5,32C 22.8333,26.3333 17.1667,20.6667 11.5,15C 12.056,14.6174 12.3893,14.1174 12.5,13.5 Z"/></g>
<g><path style="opacity:0.819" fill="#fefffe" d="M 8.5,17.5 C 14.0878,21.4171 19.0878,26.0838 23.5,31.5C 19.1667,36.5 14.5,41.1667 9.5,45.5C 8.74917,44.624 8.24917,43.624 8,42.5C 7.2596,34.1316 7.42627,25.7982 8.5,17.5 Z"/></g>
<g><path style="opacity:0.817" fill="#fefffe" d="M 52.5,17.5 C 53.9311,17.8807 54.7645,18.8807 55,20.5C 55.6667,27.8333 55.6667,35.1667 55,42.5C 54.7508,43.624 54.2508,44.624 53.5,45.5C 48.5,41.1667 43.8333,36.5 39.5,31.5C 43.8551,26.8131 48.1885,22.1464 52.5,17.5 Z"/></g>
<g><path style="opacity:0.866" fill="#fefffe" d="M 24.5,33.5 C 27.0046,33.9802 29.3379,34.9802 31.5,36.5C 33.6421,34.7927 35.9754,33.9593 38.5,34C 42.6667,38.1667 46.8333,42.3333 51,46.5C 51.6667,47.1667 51.6667,47.8333 51,48.5C 38.2421,49.6551 25.4088,49.8217 12.5,49C 11.5494,48.2825 11.3828,47.4491 12,46.5C 16.3702,42.2978 20.5368,37.9645 24.5,33.5 Z"/></g>
</svg>
